<mxfile host="app.diagrams.net" agent="Mozilla/5.0 (Windows NT 10.0; Win64; x64) AppleWebKit/537.36 (KHTML, like Gecko) Chrome/131.0.0.0 Safari/537.36" version="25.0.3">
  <diagram name="Page-1" id="cYASNf5srCbDg48wA9jD">
    <mxGraphModel dx="794" dy="493" grid="1" gridSize="10" guides="1" tooltips="1" connect="1" arrows="1" fold="1" page="1" pageScale="1" pageWidth="827" pageHeight="1169" math="0" shadow="0">
      <root>
        <mxCell id="0" />
        <mxCell id="1" parent="0" />
        <mxCell id="J2cYawkK1Uob94K2-zhS-1" style="edgeStyle=orthogonalEdgeStyle;rounded=0;orthogonalLoop=1;jettySize=auto;html=1;entryX=0;entryY=0.5;entryDx=0;entryDy=0;" edge="1" parent="1" target="J2cYawkK1Uob94K2-zhS-10">
          <mxGeometry relative="1" as="geometry">
            <mxPoint x="170" y="200" as="targetPoint" />
            <mxPoint x="240" y="90" as="sourcePoint" />
            <Array as="points">
              <mxPoint x="240" y="100" />
              <mxPoint x="200" y="100" />
              <mxPoint x="200" y="300" />
            </Array>
          </mxGeometry>
        </mxCell>
        <mxCell id="J2cYawkK1Uob94K2-zhS-2" value="&lt;div&gt;&lt;b&gt;SIGN IN&lt;/b&gt;&lt;/div&gt;&lt;div&gt;Accès : que les non connectés&lt;/div&gt;" style="rounded=1;whiteSpace=wrap;html=1;" vertex="1" parent="1">
          <mxGeometry x="240" y="40" width="120" height="120" as="geometry" />
        </mxCell>
        <mxCell id="J2cYawkK1Uob94K2-zhS-3" style="edgeStyle=orthogonalEdgeStyle;rounded=0;orthogonalLoop=1;jettySize=auto;html=1;exitX=1;exitY=0.5;exitDx=0;exitDy=0;entryX=1;entryY=0.5;entryDx=0;entryDy=0;" edge="1" parent="1" source="J2cYawkK1Uob94K2-zhS-4" target="J2cYawkK1Uob94K2-zhS-10">
          <mxGeometry relative="1" as="geometry">
            <mxPoint x="560" y="300" as="targetPoint" />
            <Array as="points">
              <mxPoint x="560" y="100" />
              <mxPoint x="560" y="300" />
            </Array>
          </mxGeometry>
        </mxCell>
        <mxCell id="J2cYawkK1Uob94K2-zhS-4" value="&lt;b&gt;SIGN UP&lt;/b&gt;&lt;div&gt;Accès : que les non connectés&lt;/div&gt;" style="rounded=1;whiteSpace=wrap;html=1;" vertex="1" parent="1">
          <mxGeometry x="400" y="40" width="120" height="120" as="geometry" />
        </mxCell>
        <mxCell id="J2cYawkK1Uob94K2-zhS-5" style="edgeStyle=orthogonalEdgeStyle;rounded=0;orthogonalLoop=1;jettySize=auto;html=1;entryX=0.5;entryY=1;entryDx=0;entryDy=0;" edge="1" parent="1" source="J2cYawkK1Uob94K2-zhS-10" target="J2cYawkK1Uob94K2-zhS-2">
          <mxGeometry relative="1" as="geometry">
            <Array as="points">
              <mxPoint x="360" y="200" />
              <mxPoint x="300" y="200" />
            </Array>
          </mxGeometry>
        </mxCell>
        <mxCell id="J2cYawkK1Uob94K2-zhS-6" style="edgeStyle=orthogonalEdgeStyle;rounded=0;orthogonalLoop=1;jettySize=auto;html=1;entryX=0.5;entryY=1;entryDx=0;entryDy=0;" edge="1" parent="1" source="J2cYawkK1Uob94K2-zhS-10" target="J2cYawkK1Uob94K2-zhS-4">
          <mxGeometry relative="1" as="geometry">
            <Array as="points">
              <mxPoint x="400" y="200" />
              <mxPoint x="460" y="200" />
            </Array>
          </mxGeometry>
        </mxCell>
        <mxCell id="J2cYawkK1Uob94K2-zhS-24" style="edgeStyle=orthogonalEdgeStyle;rounded=0;orthogonalLoop=1;jettySize=auto;html=1;exitX=0;exitY=0.75;exitDx=0;exitDy=0;entryX=0.5;entryY=0;entryDx=0;entryDy=0;" edge="1" parent="1" source="J2cYawkK1Uob94K2-zhS-10" target="J2cYawkK1Uob94K2-zhS-19">
          <mxGeometry relative="1" as="geometry" />
        </mxCell>
        <mxCell id="J2cYawkK1Uob94K2-zhS-25" style="edgeStyle=orthogonalEdgeStyle;rounded=0;orthogonalLoop=1;jettySize=auto;html=1;exitX=0.25;exitY=1;exitDx=0;exitDy=0;" edge="1" parent="1" source="J2cYawkK1Uob94K2-zhS-10" target="J2cYawkK1Uob94K2-zhS-26">
          <mxGeometry relative="1" as="geometry">
            <mxPoint x="320" y="640" as="targetPoint" />
            <Array as="points">
              <mxPoint x="360" y="360" />
              <mxPoint x="360" y="400" />
              <mxPoint x="280" y="400" />
              <mxPoint x="280" y="640" />
            </Array>
          </mxGeometry>
        </mxCell>
        <mxCell id="J2cYawkK1Uob94K2-zhS-32" style="edgeStyle=orthogonalEdgeStyle;rounded=0;orthogonalLoop=1;jettySize=auto;html=1;exitX=0.5;exitY=1;exitDx=0;exitDy=0;entryX=0.5;entryY=0;entryDx=0;entryDy=0;" edge="1" parent="1" source="J2cYawkK1Uob94K2-zhS-10" target="J2cYawkK1Uob94K2-zhS-12">
          <mxGeometry relative="1" as="geometry" />
        </mxCell>
        <mxCell id="J2cYawkK1Uob94K2-zhS-10" value="&lt;div&gt;&lt;b&gt;HOME&lt;/b&gt;&lt;/div&gt;&lt;div&gt;&lt;b&gt;LISTE ANNONCES&lt;/b&gt;&lt;/div&gt;" style="rounded=1;whiteSpace=wrap;html=1;" vertex="1" parent="1">
          <mxGeometry x="320" y="240" width="120" height="120" as="geometry" />
        </mxCell>
        <mxCell id="J2cYawkK1Uob94K2-zhS-27" style="edgeStyle=orthogonalEdgeStyle;rounded=0;orthogonalLoop=1;jettySize=auto;html=1;exitX=0.5;exitY=1;exitDx=0;exitDy=0;entryX=1;entryY=0.5;entryDx=0;entryDy=0;" edge="1" parent="1" source="J2cYawkK1Uob94K2-zhS-12" target="J2cYawkK1Uob94K2-zhS-26">
          <mxGeometry relative="1" as="geometry" />
        </mxCell>
        <mxCell id="J2cYawkK1Uob94K2-zhS-12" value="&lt;div&gt;&lt;b&gt;DETAIL ANNONCE&lt;/b&gt;&lt;/div&gt;" style="rounded=1;whiteSpace=wrap;html=1;" vertex="1" parent="1">
          <mxGeometry x="330" y="440" width="120" height="120" as="geometry" />
        </mxCell>
        <mxCell id="J2cYawkK1Uob94K2-zhS-15" value="&lt;div&gt;&lt;b&gt;DETAIL RESERVATION&lt;/b&gt;&lt;/div&gt;" style="rounded=1;whiteSpace=wrap;html=1;" vertex="1" parent="1">
          <mxGeometry x="120" y="600" width="120" height="120" as="geometry" />
        </mxCell>
        <mxCell id="J2cYawkK1Uob94K2-zhS-16" style="edgeStyle=orthogonalEdgeStyle;rounded=0;orthogonalLoop=1;jettySize=auto;html=1;exitX=0.5;exitY=1;exitDx=0;exitDy=0;entryX=0.5;entryY=0;entryDx=0;entryDy=0;" edge="1" parent="1" source="J2cYawkK1Uob94K2-zhS-19" target="J2cYawkK1Uob94K2-zhS-15">
          <mxGeometry relative="1" as="geometry" />
        </mxCell>
        <mxCell id="J2cYawkK1Uob94K2-zhS-19" value="&lt;div&gt;&lt;b&gt;LISTE RESERVATIONS&lt;/b&gt;&lt;/div&gt;" style="rounded=1;whiteSpace=wrap;html=1;" vertex="1" parent="1">
          <mxGeometry x="120" y="440" width="120" height="120" as="geometry" />
        </mxCell>
        <mxCell id="J2cYawkK1Uob94K2-zhS-20" value="&lt;div&gt;&lt;b&gt;MENTIONS LEGALES&lt;/b&gt;&lt;/div&gt;&lt;div&gt;Accès : Toutes les pages&lt;/div&gt;" style="rounded=1;whiteSpace=wrap;html=1;" vertex="1" parent="1">
          <mxGeometry x="640" y="280" width="120" height="120" as="geometry" />
        </mxCell>
        <mxCell id="J2cYawkK1Uob94K2-zhS-22" value="&lt;div&gt;&lt;b&gt;AJOUTER ANNONCE&lt;/b&gt;&lt;/div&gt;&lt;div&gt;Accès : Toutes les pages pour uniquement utilisateur connecté&lt;/div&gt;" style="rounded=1;whiteSpace=wrap;html=1;" vertex="1" parent="1">
          <mxGeometry x="640" y="560" width="120" height="120" as="geometry" />
        </mxCell>
        <mxCell id="J2cYawkK1Uob94K2-zhS-23" value="Déconnexion&lt;div&gt;Accès : Toutes les pages pour uniquement utilisateur connecté&lt;/div&gt;" style="rounded=0;whiteSpace=wrap;html=1;" vertex="1" parent="1">
          <mxGeometry x="640" y="440" width="160" height="80" as="geometry" />
        </mxCell>
        <mxCell id="J2cYawkK1Uob94K2-zhS-26" value="Supprimer une annonce" style="rounded=0;whiteSpace=wrap;html=1;" vertex="1" parent="1">
          <mxGeometry x="320" y="610" width="120" height="60" as="geometry" />
        </mxCell>
      </root>
    </mxGraphModel>
  </diagram>
</mxfile>
